# xmcd CD database file
#
# Track frame offsets:
#	150
#	16688
#	29830
#	47676
#	65812
#	84839
#	100579
#	121123
#	141054
#	163298
#	178207
#	191408
#	208309
#	225208
#	241441
#	258396
#	276285
#	293031
#
# Disc length: 4209 seconds
#
# Revision: 1
# Processed by: cddbd v1.5.1PL2 Copyright (c) Steve Scherf et al.
# Submitted via: CDex 1.51
#
DISCID=fe106f12
DTITLE=Various Artist - Back to Mine - Roots Manuva
DYEAR=2005
DGENRE=Trip-Hop
TTITLE0=Maze Feat. Frankie Beverly - Twilight
TTITLE1=Mantronix - Who Is It?
TTITLE2=LL Cool J - Going Back To Cali
TTITLE3=Wayne Smith - Under Me Sleng Teng
TTITLE4=Nightmares On Wax - 70's and 80's (Up Bringing Mix Feat. LSK, Roots Manuva, Rodney P and Tozz 180)
TTITLE5=Rhythm and Sound - No Partial
TTITLE6=Sizzla - Rastafari Teach I Everything
TTITLE7=Ricky Ranking - Can't Trick I
TTITLE8=Smiley Culture - Shan-Ah-Shan
TTITLE9=Spoonie G And The Treacherous Three - The New Rap Language
TTITLE10=Taz - Can't Contain Me
TTITLE11=New Flesh - Wherever We Go
TTITLE12=Jimmy Screech - In This Life
TTITLE13=Wiley - Goin' Mad
TTITLE14=Spoonface and Omar - She Don't Know My Name
TTITLE15=Dee Dee Sharp - Easy Money
TTITLE16=Dungeon Family - Follow The Light
TTITLE17=Grace Jones - Nightclubbing
EXTD=YEAR: 2005
EXTT0=
EXTT1=
EXTT2=
EXTT3=
EXTT4=
EXTT5=
EXTT6=
EXTT7=
EXTT8=
EXTT9=
EXTT10=
EXTT11=
EXTT12=
EXTT13=
EXTT14=
EXTT15=
EXTT16=
EXTT17=
PLAYORDER=
